# xmcd
#
# Track frame offsets:
#	150
#	19727
#	36802
#	53158
#	73342
#	92662
#	114071
#	131777
#	144734
#	167959
#	187444
#	201635
#	219517
#	236059
#	257166
#	278584
#
# Disc length: 3834 seconds
#
# Revision: 0
# Processed by: cddbd v1.5.2PL0 Copyright (c) Steve Scherf et al.
# Submitted via: EasyCDDAExtractor 10.0.3.1
#
DISCID=fe0ef810
DTITLE=Mike Oldfield - The Best Of
DYEAR=1900
DGENRE=Vocal
TTITLE0=Tubular Bells
TTITLE1=Faminly Man
TTITLE2=Moonlight Shadow
TTITLE3=Heaven's Open
TTITLE4=File Miles Out
TTITLE5=To France
TTITLE6=Foreign Affair
TTITLE7=In Dulci Jubilo
TTITLE8=Shadow On The Wall
TTITLE9=Islands
TTITLE10=Etude
TTITLE11=Sentinel
TTITLE12=Ommadawn
TTITLE13=Incantations
TTITLE14=Amarok
TTITLE15=Portsmouth
EXTD=
EXTT0=
EXTT1=
EXTT2=
EXTT3=
EXTT4=
EXTT5=
EXTT6=
EXTT7=
EXTT8=
EXTT9=
EXTT10=
EXTT11=
EXTT12=
EXTT13=
EXTT14=
EXTT15=
PLAYORDER=
